# xmcd
#
# Track frame offsets: 
#        150
#        10447
#        21150
#        33177
#        45735
#        58697
#        70894
#        82027
#        92819
#        104606
#        115307
#        128148
#        139000
#        157742
#        166453
#        178969
#        191707
#        203097
#        214862
#        233958
#
# Disc length: 3266 seconds
#
# Revision: 2
# Processed by: cddbd v1.5.2PL0 Copyright (c) Steve Scherf et al.
# Submitted via: ExactAudioCopyFreeDBPlugin 1.0
#
DISCID=1f0cc014
DTITLE=Barbara and The Browns - Can't Find Happiness:  The Sound Of Memp
DTITLE=his Recordings
DYEAR=2007
DGENRE=Soul
TTITLE0=Can't Find No Happiness
TTITLE1=It Hurts Me So Much (To Be Able to Look and to Know I Can't To
TTITLE1=uch)
TTITLE2=If I Can't Run to You I'll Crawl
TTITLE3=I Don't Want to Have to Wait
TTITLE4=Pity a Fool
TTITLE5=Big Party
TTITLE6=Plenty of Room
TTITLE7=I'm Gonna Start a War
TTITLE8=You Don't Love Me
TTITLE9=Watch Dog
TTITLE10=Man Around the House
TTITLE11=Got to Be Somebody
TTITLE12=Things Have Gone to Pieces
TTITLE13=Play Thing
TTITLE14=Great Big Thing (aka "Till You Came")
TTITLE15=There's a Look on Your Face
TTITLE16=If it's Good to You (It's Good for You)
TTITLE17=Watch Dog (alternate)
TTITLE18=Things Have Gone to Pieces (demo)
TTITLE19=It Hurts Me So Much (To Be Able to Look and to Know I Can't T
TTITLE19=ouch) (alternate)
EXTD=
EXTT0=
EXTT1=
EXTT2=
EXTT3=
EXTT4=
EXTT5=
EXTT6=
EXTT7=
EXTT8=
EXTT9=
EXTT10=
EXTT11=
EXTT12=
EXTT13=
EXTT14=
EXTT15=
EXTT16=
EXTT17=
EXTT18=
EXTT19=
PLAYORDER=
